<svg xmlns="http://www.w3.org/2000/svg" viewBox="0 0 12 12" shape-rendering="crispEdges"><rect x="4" y="1" width="4" height="1" fill="#cfd6dd"/><rect x="3" y="2" width="7" height="1" fill="#cfd6dd"/><rect x="3" y="3" width="7" height="1" fill="#cfd6dd"/><rect x="4" y="4" width="4" height="1" fill="#cfd6dd"/><rect x="9" y="4" width="1" height="1" fill="#8a5a2b"/><rect x="7" y="5" width="1" height="1" fill="#8a5a2b"/><rect x="8" y="5" width="1" height="1" fill="#b5793c"/><rect x="6" y="6" width="1" height="1" fill="#8a5a2b"/><rect x="7" y="6" width="1" height="1" fill="#b5793c"/><rect x="5" y="7" width="1" height="1" fill="#8a5a2b"/><rect x="6" y="7" width="1" height="1" fill="#b5793c"/><rect x="4" y="8" width="1" height="1" fill="#8a5a2b"/><rect x="5" y="8" width="1" height="1" fill="#b5793c"/><rect x="3" y="9" width="1" height="1" fill="#8a5a2b"/><rect x="4" y="9" width="1" height="1" fill="#b5793c"/><rect x="2" y="10" width="1" height="1" fill="#8a5a2b"/><rect x="3" y="10" width="1" height="1" fill="#b5793c"/><rect x="2" y="11" width="1" height="1" fill="#8a5a2b"/></svg>